# Tiled2Unity generated file. Do not modify by hand.
# Wavefront file for 'SimpleRPG2_mesh_0004.obj'

# Vertices (Count = 156)
v -496 -592 0
v -512 -592 0
v -512 -576 0
v -496 -576 0
v -480 -592 0
v -496 -592 0
v -496 -576 0
v -480 -576 0
v -592 -608 0
v -608 -608 0
v -608 -592 0
v -592 -592 0
v -560 -608 0
v -576 -608 0
v -576 -592 0
v -560 -592 0
v -528 -608 0
v -544 -608 0
v -544 -592 0
v -528 -592 0
v -512 -608 0
v -528 -608 0
v -528 -592 0
v -512 -592 0
v -496 -608 0
v -512 -608 0
v -512 -592 0
v -496 -592 0
v -480 -608 0
v -496 -608 0
v -496 -592 0
v -480 -592 0
v -528 -624 0
v -544 -624 0
v -544 -608 0
v -528 -608 0
v -512 -624 0
v -528 -624 0
v -528 -608 0
v -512 -608 0
v -496 -624 0
v -512 -624 0
v -512 -608 0
v -496 -608 0
v -480 -624 0
v -496 -624 0
v -496 -608 0
v -480 -608 0
v -464 -624 0
v -480 -624 0
v -480 -608 0
v -464 -608 0
v -528 -640 0
v -544 -640 0
v -544 -624 0
v -528 -624 0
v -512 -640 0
v -528 -640 0
v -528 -624 0
v -512 -624 0
v -496 -640 0
v -512 -640 0
v -512 -624 0
v -496 -624 0
v -480 -640 0
v -496 -640 0
v -496 -624 0
v -480 -624 0
v -464 -640 0
v -480 -640 0
v -480 -624 0
v -464 -624 0
v -528 -656 0
v -544 -656 0
v -544 -640 0
v -528 -640 0
v -512 -656 0
v -528 -656 0
v -528 -640 0
v -512 -640 0
v -496 -656 0
v -512 -656 0
v -512 -640 0
v -496 -640 0
v -480 -656 0
v -496 -656 0
v -496 -640 0
v -480 -640 0
v -464 -656 0
v -480 -656 0
v -480 -640 0
v -464 -640 0
v -592 -672 0
v -608 -672 0
v -608 -656 0
v -592 -656 0
v -576 -672 0
v -592 -672 0
v -592 -656 0
v -576 -656 0
v -528 -672 0
v -544 -672 0
v -544 -656 0
v -528 -656 0
v -512 -672 0
v -528 -672 0
v -528 -656 0
v -512 -656 0
v -496 -672 0
v -512 -672 0
v -512 -656 0
v -496 -656 0
v -480 -672 0
v -496 -672 0
v -496 -656 0
v -480 -656 0
v -464 -672 0
v -480 -672 0
v -480 -656 0
v -464 -656 0
v -512 -688 0
v -528 -688 0
v -528 -672 0
v -512 -672 0
v -496 -688 0
v -512 -688 0
v -512 -672 0
v -496 -672 0
v -480 -688 0
v -496 -688 0
v -496 -672 0
v -480 -672 0
v -464 -688 0
v -480 -688 0
v -480 -672 0
v -464 -672 0
v -512 -704 0
v -528 -704 0
v -528 -688 0
v -512 -688 0
v -496 -704 0
v -512 -704 0
v -512 -688 0
v -496 -688 0
v -480 -704 0
v -496 -704 0
v -496 -688 0
v -480 -688 0
v -640 -720 0
v -656 -720 0
v -656 -704 0
v -640 -704 0
v -624 -720 0
v -640 -720 0
v -640 -704 0
v -624 -704 0

# Texture cooridinates (Count = 92)
vt 0.08780992 0.9372624
vt 0.1043388 0.9372624
vt 0.1043388 0.9676806
vt 0.08780992 0.9676806
vt 0.2634298 0.8079848
vt 0.2799587 0.8079848
vt 0.2799587 0.838403
vt 0.2634298 0.838403
vt 0.2634298 0.743346
vt 0.2799587 0.743346
vt 0.2799587 0.7737643
vt 0.2634298 0.7737643
vt 0.08780992 0.9695817
vt 0.1043388 0.9695817
vt 0.1043388 1
vt 0.08780992 1
vt 0.07024793 0.9695817
vt 0.08677686 0.9695817
vt 0.08677686 1
vt 0.07024793 1
vt 0.05268595 0.9695817
vt 0.06921487 0.9695817
vt 0.06921487 1
vt 0.05268595 1
vt 0.03512397 0.9695817
vt 0.05165289 0.9695817
vt 0.05165289 1
vt 0.03512397 1
vt 0.07024793 0.9372624
vt 0.08677686 0.9372624
vt 0.08677686 0.9676806
vt 0.07024793 0.9676806
vt 0.9659091 0.1939163
vt 0.982438 0.1939163
vt 0.982438 0.2243346
vt 0.9659091 0.2243346
vt 0.05268595 0.9372624
vt 0.06921487 0.9372624
vt 0.06921487 0.9676806
vt 0.05268595 0.9676806
vt 0.03512397 0.9372624
vt 0.05165289 0.9372624
vt 0.05165289 0.9676806
vt 0.03512397 0.9676806
vt 0.9307851 0.5494297
vt 0.947314 0.5494297
vt 0.947314 0.5798479
vt 0.9307851 0.5798479
vt 0.9307851 0.5817491
vt 0.947314 0.5817491
vt 0.947314 0.6121673
vt 0.9307851 0.6121673
vt 0.4566116 0.743346
vt 0.4731405 0.743346
vt 0.4731405 0.7737643
vt 0.4566116 0.7737643
vt 0.6322314 0.9372624
vt 0.6487603 0.9372624
vt 0.6487603 0.9676806
vt 0.6322314 0.9676806
vt 0.07024793 0.904943
vt 0.08677686 0.904943
vt 0.08677686 0.9353612
vt 0.07024793 0.9353612
vt 0.05268595 0.904943
vt 0.06921487 0.904943
vt 0.06921487 0.9353612
vt 0.05268595 0.9353612
vt 0.03512397 0.904943
vt 0.05165289 0.904943
vt 0.05165289 0.9353612
vt 0.03512397 0.9353612
vt 0.4039256 0.9695817
vt 0.4204545 0.9695817
vt 0.4204545 1
vt 0.4039256 1
vt 0.9132231 0.5494297
vt 0.9297521 0.5494297
vt 0.9297521 0.5798479
vt 0.9132231 0.5798479
vt 0.8956612 0.5494297
vt 0.9121901 0.5494297
vt 0.9121901 0.5798479
vt 0.8956612 0.5798479
vt 0.9307851 0.2908745
vt 0.947314 0.2908745
vt 0.947314 0.3212928
vt 0.9307851 0.3212928
vt 0.9307851 0.2585551
vt 0.947314 0.2585551
vt 0.947314 0.2889734
vt 0.9307851 0.2889734

# Normal
vn 0 0 -1

# Mesh description
g SimpleRPG2_mesh_0004

# Faces
f 1/1/1 2/2/1 3/3/1 4/4/1
f 5/1/1 6/2/1 7/3/1 8/4/1
f 9/5/1 10/6/1 11/7/1 12/8/1
f 13/9/1 14/10/1 15/11/1 16/12/1
f 17/1/1 18/2/1 19/3/1 20/4/1
f 21/13/1 22/14/1 23/15/1 24/16/1
f 25/13/1 26/14/1 27/15/1 28/16/1
f 29/13/1 30/14/1 31/15/1 32/16/1
f 33/1/1 34/2/1 35/3/1 36/4/1
f 37/17/1 38/18/1 39/19/1 40/20/1
f 41/21/1 42/22/1 43/23/1 44/24/1
f 45/21/1 46/22/1 47/23/1 48/24/1
f 49/25/1 50/26/1 51/27/1 52/28/1
f 53/1/1 54/2/1 55/3/1 56/4/1
f 57/29/1 58/30/1 59/31/1 60/32/1
f 61/33/1 62/34/1 63/35/1 64/36/1
f 65/37/1 66/38/1 67/39/1 68/40/1
f 69/41/1 70/42/1 71/43/1 72/44/1
f 73/1/1 74/2/1 75/3/1 76/4/1
f 77/45/1 78/46/1 79/47/1 80/48/1
f 81/49/1 82/50/1 83/51/1 84/52/1
f 85/37/1 86/38/1 87/39/1 88/40/1
f 89/41/1 90/42/1 91/43/1 92/44/1
f 93/53/1 94/54/1 95/55/1 96/56/1
f 97/57/1 98/58/1 99/59/1 100/60/1
f 101/1/1 102/2/1 103/3/1 104/4/1
f 105/29/1 106/30/1 107/31/1 108/32/1
f 109/37/1 110/38/1 111/39/1 112/40/1
f 113/37/1 114/38/1 115/39/1 116/40/1
f 117/41/1 118/42/1 119/43/1 120/44/1
f 121/61/1 122/62/1 123/63/1 124/64/1
f 125/65/1 126/66/1 127/67/1 128/68/1
f 129/65/1 130/66/1 131/67/1 132/68/1
f 133/69/1 134/70/1 135/71/1 136/72/1
f 137/73/1 138/74/1 139/75/1 140/76/1
f 141/77/1 142/78/1 143/79/1 144/80/1
f 145/81/1 146/82/1 147/83/1 148/84/1
f 149/85/1 150/86/1 151/87/1 152/88/1
f 153/89/1 154/90/1 155/91/1 156/92/1

